# xmcd
#
# Track frame offsets:
#	150
#	14263
#	26675
#	49849
#	75965
#	99834
#	117539
#	148879
#	164348
#	180635
#
# Disc length: 2529 seconds
#
# Revision: 1
# Processed by: cddbd v1.5.2PL0 Copyright (c) Steve Scherf et al.
# Submitted via: audiograbber 1.83.01
#
DISCID=7a09df0a
DTITLE=Ray Bryant - The Madison Time
DYEAR=2003
DGENRE=Oldies
TTITLE0=The Madison Time - Part 1
TTITLE1=The Madison Time - Part 2
TTITLE2=The Huckle-Buck
TTITLE3=Twist City 
TTITLE4=Mo-Lasses
TTITLE5=Round Midnight
TTITLE6=Con Alma
TTITLE7=Monlight In Vermont
TTITLE8=Willow Weep For Me
TTITLE9=Exodus
EXTD=
EXTT0=
EXTT1=
EXTT2=
EXTT3=
EXTT4=
EXTT5=
EXTT6=
EXTT7=
EXTT8=
EXTT9=
PLAYORDER=
